<?xml version="1.0" encoding="UTF-8" ?>
<svg version="1.1" width="32" height="16" xmlns="http://www.w3.org/2000/svg" shape-rendering="crispEdges">
<rect x="1" y="0" width="1" height="1" fill="#595652" />
<rect x="2" y="0" width="1" height="1" fill="#595652" />
<rect x="3" y="0" width="1" height="1" fill="#595652" />
<rect x="4" y="0" width="1" height="1" fill="#595652" />
<rect x="5" y="0" width="1" height="1" fill="#595652" />
<rect x="6" y="0" width="1" height="1" fill="#595652" />
<rect x="7" y="0" width="1" height="1" fill="#595652" />
<rect x="8" y="0" width="1" height="1" fill="#595652" />
<rect x="9" y="0" width="1" height="1" fill="#595652" />
<rect x="10" y="0" width="1" height="1" fill="#595652" />
<rect x="11" y="0" width="1" height="1" fill="#595652" />
<rect x="0" y="1" width="1" height="1" fill="#595652" />
<rect x="1" y="1" width="1" height="1" fill="#595652" />
<rect x="2" y="1" width="1" height="1" fill="#A6A6A6" />
<rect x="3" y="1" width="1" height="1" fill="#D9D9D9" />
<rect x="4" y="1" width="1" height="1" fill="#D9D9D9" />
<rect x="5" y="1" width="1" height="1" fill="#D9D9D9" />
<rect x="6" y="1" width="1" height="1" fill="#D9D9D9" />
<rect x="7" y="1" width="1" height="1" fill="#D9D9D9" />
<rect x="8" y="1" width="1" height="1" fill="#D9D9D9" />
<rect x="9" y="1" width="1" height="1" fill="#E6E6E6" />
<rect x="10" y="1" width="1" height="1" fill="#FFFFFF" />
<rect x="11" y="1" width="1" height="1" fill="#595652" />
<rect x="12" y="1" width="1" height="1" fill="#595652" />
<rect x="0" y="2" width="1" height="1" fill="#595652" />
<rect x="1" y="2" width="1" height="1" fill="#A6A6A6" />
<rect x="2" y="2" width="1" height="1" fill="#D9D9D9" />
<rect x="3" y="2" width="1" height="1" fill="#D9D9D9" />
<rect x="4" y="2" width="1" height="1" fill="#D9D9D9" />
<rect x="5" y="2" width="1" height="1" fill="#D9D9D9" />
<rect x="6" y="2" width="1" height="1" fill="#D9D9D9" />
<rect x="7" y="2" width="1" height="1" fill="#D9D9D9" />
<rect x="8" y="2" width="1" height="1" fill="#D9D9D9" />
<rect x="9" y="2" width="1" height="1" fill="#D9D9D9" />
<rect x="10" y="2" width="1" height="1" fill="#E6E6E6" />
<rect x="11" y="2" width="1" height="1" fill="#FFFFFF" />
<rect x="12" y="2" width="1" height="1" fill="#595652" />
<rect x="0" y="3" width="1" height="1" fill="#595652" />
<rect x="1" y="3" width="1" height="1" fill="#A6A6A6" />
<rect x="2" y="3" width="1" height="1" fill="#D9D9D9" />
<rect x="3" y="3" width="1" height="1" fill="#000000" />
<rect x="4" y="3" width="1" height="1" fill="#D9D9D9" />
<rect x="5" y="3" width="1" height="1" fill="#000000" />
<rect x="6" y="3" width="1" height="1" fill="#D9D9D9" />
<rect x="7" y="3" width="1" height="1" fill="#000000" />
<rect x="8" y="3" width="1" height="1" fill="#000000" />
<rect x="9" y="3" width="1" height="1" fill="#D9D9D9" />
<rect x="10" y="3" width="1" height="1" fill="#E6E6E6" />
<rect x="11" y="3" width="1" height="1" fill="#FFFFFF" />
<rect x="12" y="3" width="1" height="1" fill="#595652" />
<rect x="0" y="4" width="1" height="1" fill="#595652" />
<rect x="1" y="4" width="1" height="1" fill="#A6A6A6" />
<rect x="2" y="4" width="1" height="1" fill="#D9D9D9" />
<rect x="3" y="4" width="1" height="1" fill="#000000" />
<rect x="4" y="4" width="1" height="1" fill="#D9D9D9" />
<rect x="5" y="4" width="1" height="1" fill="#000000" />
<rect x="6" y="4" width="1" height="1" fill="#D9D9D9" />
<rect x="7" y="4" width="1" height="1" fill="#000000" />
<rect x="8" y="4" width="1" height="1" fill="#D9D9D9" />
<rect x="9" y="4" width="1" height="1" fill="#000000" />
<rect x="10" y="4" width="1" height="1" fill="#E6E6E6" />
<rect x="11" y="4" width="1" height="1" fill="#FFFFFF" />
<rect x="12" y="4" width="1" height="1" fill="#595652" />
<rect x="0" y="5" width="1" height="1" fill="#595652" />
<rect x="1" y="5" width="1" height="1" fill="#A6A6A6" />
<rect x="2" y="5" width="1" height="1" fill="#D9D9D9" />
<rect x="3" y="5" width="1" height="1" fill="#000000" />
<rect x="4" y="5" width="1" height="1" fill="#000000" />
<rect x="5" y="5" width="1" height="1" fill="#000000" />
<rect x="6" y="5" width="1" height="1" fill="#D9D9D9" />
<rect x="7" y="5" width="1" height="1" fill="#000000" />
<rect x="8" y="5" width="1" height="1" fill="#000000" />
<rect x="9" y="5" width="1" height="1" fill="#D9D9D9" />
<rect x="10" y="5" width="1" height="1" fill="#E6E6E6" />
<rect x="11" y="5" width="1" height="1" fill="#FFFFFF" />
<rect x="12" y="5" width="1" height="1" fill="#595652" />
<rect x="0" y="6" width="1" height="1" fill="#595652" />
<rect x="1" y="6" width="1" height="1" fill="#A6A6A6" />
<rect x="2" y="6" width="1" height="1" fill="#D9D9D9" />
<rect x="3" y="6" width="1" height="1" fill="#000000" />
<rect x="4" y="6" width="1" height="1" fill="#D9D9D9" />
<rect x="5" y="6" width="1" height="1" fill="#000000" />
<rect x="6" y="6" width="1" height="1" fill="#D9D9D9" />
<rect x="7" y="6" width="1" height="1" fill="#000000" />
<rect x="8" y="6" width="1" height="1" fill="#D9D9D9" />
<rect x="9" y="6" width="1" height="1" fill="#D9D9D9" />
<rect x="10" y="6" width="1" height="1" fill="#E6E6E6" />
<rect x="11" y="6" width="1" height="1" fill="#FFFFFF" />
<rect x="12" y="6" width="1" height="1" fill="#595652" />
<rect x="13" y="6" width="1" height="1" fill="#595652" />
<rect x="0" y="7" width="1" height="1" fill="#595652" />
<rect x="1" y="7" width="1" height="1" fill="#A6A6A6" />
<rect x="2" y="7" width="1" height="1" fill="#D9D9D9" />
<rect x="3" y="7" width="1" height="1" fill="#D9D9D9" />
<rect x="4" y="7" width="1" height="1" fill="#D9D9D9" />
<rect x="5" y="7" width="1" height="1" fill="#D9D9D9" />
<rect x="6" y="7" width="1" height="1" fill="#D9D9D9" />
<rect x="7" y="7" width="1" height="1" fill="#D9D9D9" />
<rect x="8" y="7" width="1" height="1" fill="#D9D9D9" />
<rect x="9" y="7" width="1" height="1" fill="#D9D9D9" />
<rect x="10" y="7" width="1" height="1" fill="#D9D9D9" />
<rect x="11" y="7" width="1" height="1" fill="#E6E6E6" />
<rect x="12" y="7" width="1" height="1" fill="#FFFFFF" />
<rect x="13" y="7" width="1" height="1" fill="#595652" />
<rect x="14" y="7" width="1" height="1" fill="#595652" />
<rect x="15" y="7" width="1" height="1" fill="#595652" />
<rect x="16" y="7" width="1" height="1" fill="#595652" />
<rect x="17" y="7" width="1" height="1" fill="#595652" />
<rect x="18" y="7" width="1" height="1" fill="#595652" />
<rect x="19" y="7" width="1" height="1" fill="#595652" />
<rect x="20" y="7" width="1" height="1" fill="#595652" />
<rect x="21" y="7" width="1" height="1" fill="#595652" />
<rect x="22" y="7" width="1" height="1" fill="#595652" />
<rect x="23" y="7" width="1" height="1" fill="#595652" />
<rect x="24" y="7" width="1" height="1" fill="#595652" />
<rect x="25" y="7" width="1" height="1" fill="#595652" />
<rect x="26" y="7" width="1" height="1" fill="#595652" />
<rect x="27" y="7" width="1" height="1" fill="#595652" />
<rect x="28" y="7" width="1" height="1" fill="#595652" />
<rect x="29" y="7" width="1" height="1" fill="#595652" />
<rect x="30" y="7" width="1" height="1" fill="#595652" />
<rect x="0" y="8" width="1" height="1" fill="#595652" />
<rect x="1" y="8" width="1" height="1" fill="#A6A6A6" />
<rect x="2" y="8" width="1" height="1" fill="#C3C3C3" />
<rect x="3" y="8" width="1" height="1" fill="#D9D9D9" />
<rect x="4" y="8" width="1" height="1" fill="#D9D9D9" />
<rect x="5" y="8" width="1" height="1" fill="#D9D9D9" />
<rect x="6" y="8" width="1" height="1" fill="#D9D9D9" />
<rect x="7" y="8" width="1" height="1" fill="#D9D9D9" />
<rect x="8" y="8" width="1" height="1" fill="#D9D9D9" />
<rect x="9" y="8" width="1" height="1" fill="#D9D9D9" />
<rect x="10" y="8" width="1" height="1" fill="#D9D9D9" />
<rect x="11" y="8" width="1" height="1" fill="#D9D9D9" />
<rect x="12" y="8" width="1" height="1" fill="#E6E6E6" />
<rect x="13" y="8" width="1" height="1" fill="#FFFFFF" />
<rect x="14" y="8" width="1" height="1" fill="#FFFFFF" />
<rect x="15" y="8" width="1" height="1" fill="#FFFFFF" />
<rect x="16" y="8" width="1" height="1" fill="#FFFFFF" />
<rect x="17" y="8" width="1" height="1" fill="#FFFFFF" />
<rect x="18" y="8" width="1" height="1" fill="#FFFFFF" />
<rect x="19" y="8" width="1" height="1" fill="#FFFFFF" />
<rect x="20" y="8" width="1" height="1" fill="#FFFFFF" />
<rect x="21" y="8" width="1" height="1" fill="#FFFFFF" />
<rect x="22" y="8" width="1" height="1" fill="#FFFFFF" />
<rect x="23" y="8" width="1" height="1" fill="#FFFFFF" />
<rect x="24" y="8" width="1" height="1" fill="#FFFFFF" />
<rect x="25" y="8" width="1" height="1" fill="#FFFFFF" />
<rect x="26" y="8" width="1" height="1" fill="#FFFFFF" />
<rect x="27" y="8" width="1" height="1" fill="#FFFFFF" />
<rect x="28" y="8" width="1" height="1" fill="#FFFFFF" />
<rect x="29" y="8" width="1" height="1" fill="#FFFFFF" />
<rect x="30" y="8" width="1" height="1" fill="#595652" />
<rect x="31" y="8" width="1" height="1" fill="#595652" />
<rect x="0" y="9" width="1" height="1" fill="#595652" />
<rect x="1" y="9" width="1" height="1" fill="#A6A6A6" />
<rect x="2" y="9" width="1" height="1" fill="#C3C3C3" />
<rect x="3" y="9" width="1" height="1" fill="#595652" />
<rect x="4" y="9" width="1" height="1" fill="#595652" />
<rect x="5" y="9" width="1" height="1" fill="#595652" />
<rect x="6" y="9" width="1" height="1" fill="#595652" />
<rect x="7" y="9" width="1" height="1" fill="#595652" />
<rect x="8" y="9" width="1" height="1" fill="#595652" />
<rect x="9" y="9" width="1" height="1" fill="#595652" />
<rect x="10" y="9" width="1" height="1" fill="#595652" />
<rect x="11" y="9" width="1" height="1" fill="#595652" />
<rect x="12" y="9" width="1" height="1" fill="#595652" />
<rect x="13" y="9" width="1" height="1" fill="#595652" />
<rect x="14" y="9" width="1" height="1" fill="#595652" />
<rect x="15" y="9" width="1" height="1" fill="#595652" />
<rect x="16" y="9" width="1" height="1" fill="#595652" />
<rect x="17" y="9" width="1" height="1" fill="#595652" />
<rect x="18" y="9" width="1" height="1" fill="#595652" />
<rect x="19" y="9" width="1" height="1" fill="#595652" />
<rect x="20" y="9" width="1" height="1" fill="#595652" />
<rect x="21" y="9" width="1" height="1" fill="#595652" />
<rect x="22" y="9" width="1" height="1" fill="#595652" />
<rect x="23" y="9" width="1" height="1" fill="#595652" />
<rect x="24" y="9" width="1" height="1" fill="#595652" />
<rect x="25" y="9" width="1" height="1" fill="#595652" />
<rect x="26" y="9" width="1" height="1" fill="#595652" />
<rect x="27" y="9" width="1" height="1" fill="#595652" />
<rect x="28" y="9" width="1" height="1" fill="#595652" />
<rect x="29" y="9" width="1" height="1" fill="#FFFFFF" />
<rect x="30" y="9" width="1" height="1" fill="#FFFFFF" />
<rect x="31" y="9" width="1" height="1" fill="#595652" />
<rect x="0" y="10" width="1" height="1" fill="#595652" />
<rect x="1" y="10" width="1" height="1" fill="#A6A6A6" />
<rect x="2" y="10" width="1" height="1" fill="#595652" />
<rect x="3" y="10" width="1" height="1" fill="#595652" />
<rect x="4" y="10" width="1" height="1" fill="#333333" />
<rect x="5" y="10" width="1" height="1" fill="#333333" />
<rect x="6" y="10" width="1" height="1" fill="#333333" />
<rect x="7" y="10" width="1" height="1" fill="#333333" />
<rect x="8" y="10" width="1" height="1" fill="#333333" />
<rect x="9" y="10" width="1" height="1" fill="#333333" />
<rect x="10" y="10" width="1" height="1" fill="#333333" />
<rect x="11" y="10" width="1" height="1" fill="#333333" />
<rect x="12" y="10" width="1" height="1" fill="#333333" />
<rect x="13" y="10" width="1" height="1" fill="#333333" />
<rect x="14" y="10" width="1" height="1" fill="#333333" />
<rect x="15" y="10" width="1" height="1" fill="#333333" />
<rect x="16" y="10" width="1" height="1" fill="#333333" />
<rect x="17" y="10" width="1" height="1" fill="#333333" />
<rect x="18" y="10" width="1" height="1" fill="#333333" />
<rect x="19" y="10" width="1" height="1" fill="#333333" />
<rect x="20" y="10" width="1" height="1" fill="#333333" />
<rect x="21" y="10" width="1" height="1" fill="#333333" />
<rect x="22" y="10" width="1" height="1" fill="#333333" />
<rect x="23" y="10" width="1" height="1" fill="#333333" />
<rect x="24" y="10" width="1" height="1" fill="#333333" />
<rect x="25" y="10" width="1" height="1" fill="#333333" />
<rect x="26" y="10" width="1" height="1" fill="#333333" />
<rect x="27" y="10" width="1" height="1" fill="#333333" />
<rect x="28" y="10" width="1" height="1" fill="#595652" />
<rect x="29" y="10" width="1" height="1" fill="#595652" />
<rect x="30" y="10" width="1" height="1" fill="#FFFFFF" />
<rect x="31" y="10" width="1" height="1" fill="#595652" />
<rect x="0" y="11" width="1" height="1" fill="#595652" />
<rect x="1" y="11" width="1" height="1" fill="#A6A6A6" />
<rect x="2" y="11" width="1" height="1" fill="#595652" />
<rect x="3" y="11" width="1" height="1" fill="#595652" />
<rect x="4" y="11" width="1" height="1" fill="#4D4D4D" />
<rect x="5" y="11" width="1" height="1" fill="#4D4D4D" />
<rect x="6" y="11" width="1" height="1" fill="#4D4D4D" />
<rect x="7" y="11" width="1" height="1" fill="#4D4D4D" />
<rect x="8" y="11" width="1" height="1" fill="#4D4D4D" />
<rect x="9" y="11" width="1" height="1" fill="#4D4D4D" />
<rect x="10" y="11" width="1" height="1" fill="#4D4D4D" />
<rect x="11" y="11" width="1" height="1" fill="#4D4D4D" />
<rect x="12" y="11" width="1" height="1" fill="#4D4D4D" />
<rect x="13" y="11" width="1" height="1" fill="#4D4D4D" />
<rect x="14" y="11" width="1" height="1" fill="#4D4D4D" />
<rect x="15" y="11" width="1" height="1" fill="#4D4D4D" />
<rect x="16" y="11" width="1" height="1" fill="#4D4D4D" />
<rect x="17" y="11" width="1" height="1" fill="#4D4D4D" />
<rect x="18" y="11" width="1" height="1" fill="#4D4D4D" />
<rect x="19" y="11" width="1" height="1" fill="#4D4D4D" />
<rect x="20" y="11" width="1" height="1" fill="#4D4D4D" />
<rect x="21" y="11" width="1" height="1" fill="#4D4D4D" />
<rect x="22" y="11" width="1" height="1" fill="#4D4D4D" />
<rect x="23" y="11" width="1" height="1" fill="#4D4D4D" />
<rect x="24" y="11" width="1" height="1" fill="#4D4D4D" />
<rect x="25" y="11" width="1" height="1" fill="#4D4D4D" />
<rect x="26" y="11" width="1" height="1" fill="#4D4D4D" />
<rect x="27" y="11" width="1" height="1" fill="#4D4D4D" />
<rect x="28" y="11" width="1" height="1" fill="#595652" />
<rect x="29" y="11" width="1" height="1" fill="#595652" />
<rect x="30" y="11" width="1" height="1" fill="#FFFFFF" />
<rect x="31" y="11" width="1" height="1" fill="#595652" />
<rect x="0" y="12" width="1" height="1" fill="#595652" />
<rect x="1" y="12" width="1" height="1" fill="#A6A6A6" />
<rect x="2" y="12" width="1" height="1" fill="#595652" />
<rect x="3" y="12" width="1" height="1" fill="#595652" />
<rect x="4" y="12" width="1" height="1" fill="#4D4D4D" />
<rect x="5" y="12" width="1" height="1" fill="#4D4D4D" />
<rect x="6" y="12" width="1" height="1" fill="#4D4D4D" />
<rect x="7" y="12" width="1" height="1" fill="#4D4D4D" />
<rect x="8" y="12" width="1" height="1" fill="#4D4D4D" />
<rect x="9" y="12" width="1" height="1" fill="#4D4D4D" />
<rect x="10" y="12" width="1" height="1" fill="#4D4D4D" />
<rect x="11" y="12" width="1" height="1" fill="#4D4D4D" />
<rect x="12" y="12" width="1" height="1" fill="#4D4D4D" />
<rect x="13" y="12" width="1" height="1" fill="#4D4D4D" />
<rect x="14" y="12" width="1" height="1" fill="#4D4D4D" />
<rect x="15" y="12" width="1" height="1" fill="#4D4D4D" />
<rect x="16" y="12" width="1" height="1" fill="#4D4D4D" />
<rect x="17" y="12" width="1" height="1" fill="#4D4D4D" />
<rect x="18" y="12" width="1" height="1" fill="#4D4D4D" />
<rect x="19" y="12" width="1" height="1" fill="#4D4D4D" />
<rect x="20" y="12" width="1" height="1" fill="#4D4D4D" />
<rect x="21" y="12" width="1" height="1" fill="#4D4D4D" />
<rect x="22" y="12" width="1" height="1" fill="#4D4D4D" />
<rect x="23" y="12" width="1" height="1" fill="#4D4D4D" />
<rect x="24" y="12" width="1" height="1" fill="#4D4D4D" />
<rect x="25" y="12" width="1" height="1" fill="#4D4D4D" />
<rect x="26" y="12" width="1" height="1" fill="#4D4D4D" />
<rect x="27" y="12" width="1" height="1" fill="#4D4D4D" />
<rect x="28" y="12" width="1" height="1" fill="#595652" />
<rect x="29" y="12" width="1" height="1" fill="#595652" />
<rect x="30" y="12" width="1" height="1" fill="#FFFFFF" />
<rect x="31" y="12" width="1" height="1" fill="#595652" />
<rect x="0" y="13" width="1" height="1" fill="#595652" />
<rect x="1" y="13" width="1" height="1" fill="#A6A6A6" />
<rect x="2" y="13" width="1" height="1" fill="#A6A6A6" />
<rect x="3" y="13" width="1" height="1" fill="#595652" />
<rect x="4" y="13" width="1" height="1" fill="#595652" />
<rect x="5" y="13" width="1" height="1" fill="#595652" />
<rect x="6" y="13" width="1" height="1" fill="#595652" />
<rect x="7" y="13" width="1" height="1" fill="#595652" />
<rect x="8" y="13" width="1" height="1" fill="#595652" />
<rect x="9" y="13" width="1" height="1" fill="#595652" />
<rect x="10" y="13" width="1" height="1" fill="#595652" />
<rect x="11" y="13" width="1" height="1" fill="#595652" />
<rect x="12" y="13" width="1" height="1" fill="#595652" />
<rect x="13" y="13" width="1" height="1" fill="#595652" />
<rect x="14" y="13" width="1" height="1" fill="#595652" />
<rect x="15" y="13" width="1" height="1" fill="#595652" />
<rect x="16" y="13" width="1" height="1" fill="#595652" />
<rect x="17" y="13" width="1" height="1" fill="#595652" />
<rect x="18" y="13" width="1" height="1" fill="#595652" />
<rect x="19" y="13" width="1" height="1" fill="#595652" />
<rect x="20" y="13" width="1" height="1" fill="#595652" />
<rect x="21" y="13" width="1" height="1" fill="#595652" />
<rect x="22" y="13" width="1" height="1" fill="#595652" />
<rect x="23" y="13" width="1" height="1" fill="#595652" />
<rect x="24" y="13" width="1" height="1" fill="#595652" />
<rect x="25" y="13" width="1" height="1" fill="#595652" />
<rect x="26" y="13" width="1" height="1" fill="#595652" />
<rect x="27" y="13" width="1" height="1" fill="#595652" />
<rect x="28" y="13" width="1" height="1" fill="#595652" />
<rect x="29" y="13" width="1" height="1" fill="#FFFFFF" />
<rect x="30" y="13" width="1" height="1" fill="#FFFFFF" />
<rect x="31" y="13" width="1" height="1" fill="#595652" />
<rect x="0" y="14" width="1" height="1" fill="#595652" />
<rect x="1" y="14" width="1" height="1" fill="#595652" />
<rect x="2" y="14" width="1" height="1" fill="#A6A6A6" />
<rect x="3" y="14" width="1" height="1" fill="#A6A6A6" />
<rect x="4" y="14" width="1" height="1" fill="#D9D9D9" />
<rect x="5" y="14" width="1" height="1" fill="#D9D9D9" />
<rect x="6" y="14" width="1" height="1" fill="#D9D9D9" />
<rect x="7" y="14" width="1" height="1" fill="#D9D9D9" />
<rect x="8" y="14" width="1" height="1" fill="#D9D9D9" />
<rect x="9" y="14" width="1" height="1" fill="#D9D9D9" />
<rect x="10" y="14" width="1" height="1" fill="#D9D9D9" />
<rect x="11" y="14" width="1" height="1" fill="#D9D9D9" />
<rect x="12" y="14" width="1" height="1" fill="#D9D9D9" />
<rect x="13" y="14" width="1" height="1" fill="#D9D9D9" />
<rect x="14" y="14" width="1" height="1" fill="#D9D9D9" />
<rect x="15" y="14" width="1" height="1" fill="#D9D9D9" />
<rect x="16" y="14" width="1" height="1" fill="#D9D9D9" />
<rect x="17" y="14" width="1" height="1" fill="#D9D9D9" />
<rect x="18" y="14" width="1" height="1" fill="#D9D9D9" />
<rect x="19" y="14" width="1" height="1" fill="#D9D9D9" />
<rect x="20" y="14" width="1" height="1" fill="#D9D9D9" />
<rect x="21" y="14" width="1" height="1" fill="#D9D9D9" />
<rect x="22" y="14" width="1" height="1" fill="#D9D9D9" />
<rect x="23" y="14" width="1" height="1" fill="#D9D9D9" />
<rect x="24" y="14" width="1" height="1" fill="#D9D9D9" />
<rect x="25" y="14" width="1" height="1" fill="#D9D9D9" />
<rect x="26" y="14" width="1" height="1" fill="#D9D9D9" />
<rect x="27" y="14" width="1" height="1" fill="#D9D9D9" />
<rect x="28" y="14" width="1" height="1" fill="#D9D9D9" />
<rect x="29" y="14" width="1" height="1" fill="#FFFFFF" />
<rect x="30" y="14" width="1" height="1" fill="#595652" />
<rect x="31" y="14" width="1" height="1" fill="#595652" />
<rect x="1" y="15" width="1" height="1" fill="#595652" />
<rect x="2" y="15" width="1" height="1" fill="#595652" />
<rect x="3" y="15" width="1" height="1" fill="#595652" />
<rect x="4" y="15" width="1" height="1" fill="#595652" />
<rect x="5" y="15" width="1" height="1" fill="#595652" />
<rect x="6" y="15" width="1" height="1" fill="#595652" />
<rect x="7" y="15" width="1" height="1" fill="#595652" />
<rect x="8" y="15" width="1" height="1" fill="#595652" />
<rect x="9" y="15" width="1" height="1" fill="#595652" />
<rect x="10" y="15" width="1" height="1" fill="#595652" />
<rect x="11" y="15" width="1" height="1" fill="#595652" />
<rect x="12" y="15" width="1" height="1" fill="#595652" />
<rect x="13" y="15" width="1" height="1" fill="#595652" />
<rect x="14" y="15" width="1" height="1" fill="#595652" />
<rect x="15" y="15" width="1" height="1" fill="#595652" />
<rect x="16" y="15" width="1" height="1" fill="#595652" />
<rect x="17" y="15" width="1" height="1" fill="#595652" />
<rect x="18" y="15" width="1" height="1" fill="#595652" />
<rect x="19" y="15" width="1" height="1" fill="#595652" />
<rect x="20" y="15" width="1" height="1" fill="#595652" />
<rect x="21" y="15" width="1" height="1" fill="#595652" />
<rect x="22" y="15" width="1" height="1" fill="#595652" />
<rect x="23" y="15" width="1" height="1" fill="#595652" />
<rect x="24" y="15" width="1" height="1" fill="#595652" />
<rect x="25" y="15" width="1" height="1" fill="#595652" />
<rect x="26" y="15" width="1" height="1" fill="#595652" />
<rect x="27" y="15" width="1" height="1" fill="#595652" />
<rect x="28" y="15" width="1" height="1" fill="#595652" />
<rect x="29" y="15" width="1" height="1" fill="#595652" />
<rect x="30" y="15" width="1" height="1" fill="#595652" />
</svg>