<?xml version="1.0" encoding="UTF-8" ?>
<svg version="1.1" width="48" height="48" xmlns="http://www.w3.org/2000/svg" shape-rendering="crispEdges">
<rect x="38" y="2" width="1" height="1" fill="#0D153B" />
<rect x="39" y="2" width="1" height="1" fill="#0D153B" />
<rect x="40" y="2" width="1" height="1" fill="#0D153B" />
<rect x="41" y="2" width="1" height="1" fill="#0D153B" />
<rect x="22" y="3" width="1" height="1" fill="#0D153B" />
<rect x="23" y="3" width="1" height="1" fill="#0D153B" />
<rect x="24" y="3" width="1" height="1" fill="#0D153B" />
<rect x="25" y="3" width="1" height="1" fill="#0D153B" />
<rect x="37" y="3" width="1" height="1" fill="#0D153B" />
<rect x="38" y="3" width="1" height="1" fill="#465BD4" />
<rect x="39" y="3" width="1" height="1" fill="#465BD4" />
<rect x="40" y="3" width="1" height="1" fill="#465BD4" />
<rect x="41" y="3" width="1" height="1" fill="#465BD4" />
<rect x="42" y="3" width="1" height="1" fill="#0D153B" />
<rect x="5" y="4" width="1" height="1" fill="#0D153B" />
<rect x="6" y="4" width="1" height="1" fill="#0D153B" />
<rect x="7" y="4" width="1" height="1" fill="#0D153B" />
<rect x="8" y="4" width="1" height="1" fill="#0D153B" />
<rect x="9" y="4" width="1" height="1" fill="#0D153B" />
<rect x="10" y="4" width="1" height="1" fill="#0D153B" />
<rect x="21" y="4" width="1" height="1" fill="#0D153B" />
<rect x="22" y="4" width="1" height="1" fill="#465BD4" />
<rect x="23" y="4" width="1" height="1" fill="#465BD4" />
<rect x="24" y="4" width="1" height="1" fill="#465BD4" />
<rect x="25" y="4" width="1" height="1" fill="#465BD4" />
<rect x="26" y="4" width="1" height="1" fill="#0D153B" />
<rect x="36" y="4" width="1" height="1" fill="#0D153B" />
<rect x="37" y="4" width="1" height="1" fill="#2B40BA" />
<rect x="38" y="4" width="1" height="1" fill="#3047D4" />
<rect x="39" y="4" width="1" height="1" fill="#3047D4" />
<rect x="40" y="4" width="1" height="1" fill="#3047D4" />
<rect x="41" y="4" width="1" height="1" fill="#3047D4" />
<rect x="42" y="4" width="1" height="1" fill="#465BD4" />
<rect x="43" y="4" width="1" height="1" fill="#0D153B" />
<rect x="3" y="5" width="1" height="1" fill="#0D153B" />
<rect x="4" y="5" width="1" height="1" fill="#0D153B" />
<rect x="5" y="5" width="1" height="1" fill="#2B40BA" />
<rect x="6" y="5" width="1" height="1" fill="#2B40BA" />
<rect x="7" y="5" width="1" height="1" fill="#2B40BA" />
<rect x="8" y="5" width="1" height="1" fill="#3047D4" />
<rect x="9" y="5" width="1" height="1" fill="#3047D4" />
<rect x="10" y="5" width="1" height="1" fill="#465BD4" />
<rect x="11" y="5" width="1" height="1" fill="#0D153B" />
<rect x="12" y="5" width="1" height="1" fill="#0D153B" />
<rect x="20" y="5" width="1" height="1" fill="#0D153B" />
<rect x="21" y="5" width="1" height="1" fill="#2B40BA" />
<rect x="22" y="5" width="1" height="1" fill="#3047D4" />
<rect x="23" y="5" width="1" height="1" fill="#3047D4" />
<rect x="24" y="5" width="1" height="1" fill="#3047D4" />
<rect x="25" y="5" width="1" height="1" fill="#3047D4" />
<rect x="26" y="5" width="1" height="1" fill="#465BD4" />
<rect x="27" y="5" width="1" height="1" fill="#0D153B" />
<rect x="35" y="5" width="1" height="1" fill="#0D153B" />
<rect x="36" y="5" width="1" height="1" fill="#2B40BA" />
<rect x="37" y="5" width="1" height="1" fill="#3047D4" />
<rect x="38" y="5" width="1" height="1" fill="#3047D4" />
<rect x="39" y="5" width="1" height="1" fill="#3047D4" />
<rect x="40" y="5" width="1" height="1" fill="#3047D4" />
<rect x="41" y="5" width="1" height="1" fill="#3047D4" />
<rect x="42" y="5" width="1" height="1" fill="#3047D4" />
<rect x="43" y="5" width="1" height="1" fill="#465BD4" />
<rect x="44" y="5" width="1" height="1" fill="#0D153B" />
<rect x="2" y="6" width="1" height="1" fill="#0D153B" />
<rect x="3" y="6" width="1" height="1" fill="#2B40BA" />
<rect x="4" y="6" width="1" height="1" fill="#3047D4" />
<rect x="5" y="6" width="1" height="1" fill="#3047D4" />
<rect x="6" y="6" width="1" height="1" fill="#3047D4" />
<rect x="7" y="6" width="1" height="1" fill="#3047D4" />
<rect x="8" y="6" width="1" height="1" fill="#3047D4" />
<rect x="9" y="6" width="1" height="1" fill="#3047D4" />
<rect x="10" y="6" width="1" height="1" fill="#3047D4" />
<rect x="11" y="6" width="1" height="1" fill="#3047D4" />
<rect x="12" y="6" width="1" height="1" fill="#465BD4" />
<rect x="13" y="6" width="1" height="1" fill="#0D153B" />
<rect x="19" y="6" width="1" height="1" fill="#0D153B" />
<rect x="20" y="6" width="1" height="1" fill="#2B40BA" />
<rect x="21" y="6" width="1" height="1" fill="#3047D4" />
<rect x="22" y="6" width="1" height="1" fill="#3047D4" />
<rect x="23" y="6" width="1" height="1" fill="#3047D4" />
<rect x="24" y="6" width="1" height="1" fill="#3047D4" />
<rect x="25" y="6" width="1" height="1" fill="#3047D4" />
<rect x="26" y="6" width="1" height="1" fill="#3047D4" />
<rect x="27" y="6" width="1" height="1" fill="#465BD4" />
<rect x="28" y="6" width="1" height="1" fill="#0D153B" />
<rect x="35" y="6" width="1" height="1" fill="#0D153B" />
<rect x="36" y="6" width="1" height="1" fill="#2B40BA" />
<rect x="37" y="6" width="1" height="1" fill="#3047D4" />
<rect x="38" y="6" width="1" height="1" fill="#3047D4" />
<rect x="39" y="6" width="1" height="1" fill="#3047D4" />
<rect x="40" y="6" width="1" height="1" fill="#3047D4" />
<rect x="41" y="6" width="1" height="1" fill="#3047D4" />
<rect x="42" y="6" width="1" height="1" fill="#3047D4" />
<rect x="43" y="6" width="1" height="1" fill="#465BD4" />
<rect x="44" y="6" width="1" height="1" fill="#0D153B" />
<rect x="2" y="7" width="1" height="1" fill="#0D153B" />
<rect x="3" y="7" width="1" height="1" fill="#2B40BA" />
<rect x="4" y="7" width="1" height="1" fill="#3047D4" />
<rect x="5" y="7" width="1" height="1" fill="#3047D4" />
<rect x="6" y="7" width="1" height="1" fill="#3047D4" />
<rect x="7" y="7" width="1" height="1" fill="#3047D4" />
<rect x="8" y="7" width="1" height="1" fill="#000000" />
<rect x="9" y="7" width="1" height="1" fill="#3047D4" />
<rect x="10" y="7" width="1" height="1" fill="#000000" />
<rect x="11" y="7" width="1" height="1" fill="#3047D4" />
<rect x="12" y="7" width="1" height="1" fill="#465BD4" />
<rect x="13" y="7" width="1" height="1" fill="#0D153B" />
<rect x="19" y="7" width="1" height="1" fill="#0D153B" />
<rect x="20" y="7" width="1" height="1" fill="#2B40BA" />
<rect x="21" y="7" width="1" height="1" fill="#3047D4" />
<rect x="22" y="7" width="1" height="1" fill="#3047D4" />
<rect x="23" y="7" width="1" height="1" fill="#3047D4" />
<rect x="24" y="7" width="1" height="1" fill="#000000" />
<rect x="25" y="7" width="1" height="1" fill="#3047D4" />
<rect x="26" y="7" width="1" height="1" fill="#000000" />
<rect x="27" y="7" width="1" height="1" fill="#465BD4" />
<rect x="28" y="7" width="1" height="1" fill="#0D153B" />
<rect x="35" y="7" width="1" height="1" fill="#0D153B" />
<rect x="36" y="7" width="1" height="1" fill="#2B40BA" />
<rect x="37" y="7" width="1" height="1" fill="#3047D4" />
<rect x="38" y="7" width="1" height="1" fill="#3047D4" />
<rect x="39" y="7" width="1" height="1" fill="#3047D4" />
<rect x="40" y="7" width="1" height="1" fill="#000000" />
<rect x="41" y="7" width="1" height="1" fill="#3047D4" />
<rect x="42" y="7" width="1" height="1" fill="#000000" />
<rect x="43" y="7" width="1" height="1" fill="#465BD4" />
<rect x="44" y="7" width="1" height="1" fill="#0D153B" />
<rect x="2" y="8" width="1" height="1" fill="#0D153B" />
<rect x="3" y="8" width="1" height="1" fill="#2B40BA" />
<rect x="4" y="8" width="1" height="1" fill="#3047D4" />
<rect x="5" y="8" width="1" height="1" fill="#3047D4" />
<rect x="6" y="8" width="1" height="1" fill="#3047D4" />
<rect x="7" y="8" width="1" height="1" fill="#3047D4" />
<rect x="8" y="8" width="1" height="1" fill="#000000" />
<rect x="9" y="8" width="1" height="1" fill="#3047D4" />
<rect x="10" y="8" width="1" height="1" fill="#000000" />
<rect x="11" y="8" width="1" height="1" fill="#3047D4" />
<rect x="12" y="8" width="1" height="1" fill="#465BD4" />
<rect x="13" y="8" width="1" height="1" fill="#0D153B" />
<rect x="19" y="8" width="1" height="1" fill="#0D153B" />
<rect x="20" y="8" width="1" height="1" fill="#2B40BA" />
<rect x="21" y="8" width="1" height="1" fill="#3047D4" />
<rect x="22" y="8" width="1" height="1" fill="#3047D4" />
<rect x="23" y="8" width="1" height="1" fill="#3047D4" />
<rect x="24" y="8" width="1" height="1" fill="#000000" />
<rect x="25" y="8" width="1" height="1" fill="#3047D4" />
<rect x="26" y="8" width="1" height="1" fill="#000000" />
<rect x="27" y="8" width="1" height="1" fill="#465BD4" />
<rect x="28" y="8" width="1" height="1" fill="#0D153B" />
<rect x="35" y="8" width="1" height="1" fill="#0D153B" />
<rect x="36" y="8" width="1" height="1" fill="#2B40BA" />
<rect x="37" y="8" width="1" height="1" fill="#3047D4" />
<rect x="38" y="8" width="1" height="1" fill="#3047D4" />
<rect x="39" y="8" width="1" height="1" fill="#3047D4" />
<rect x="40" y="8" width="1" height="1" fill="#000000" />
<rect x="41" y="8" width="1" height="1" fill="#3047D4" />
<rect x="42" y="8" width="1" height="1" fill="#000000" />
<rect x="43" y="8" width="1" height="1" fill="#465BD4" />
<rect x="44" y="8" width="1" height="1" fill="#0D153B" />
<rect x="2" y="9" width="1" height="1" fill="#0D153B" />
<rect x="3" y="9" width="1" height="1" fill="#2B40BA" />
<rect x="4" y="9" width="1" height="1" fill="#3047D4" />
<rect x="5" y="9" width="1" height="1" fill="#3047D4" />
<rect x="6" y="9" width="1" height="1" fill="#3047D4" />
<rect x="7" y="9" width="1" height="1" fill="#3047D4" />
<rect x="8" y="9" width="1" height="1" fill="#3047D4" />
<rect x="9" y="9" width="1" height="1" fill="#3047D4" />
<rect x="10" y="9" width="1" height="1" fill="#3047D4" />
<rect x="11" y="9" width="1" height="1" fill="#3047D4" />
<rect x="12" y="9" width="1" height="1" fill="#465BD4" />
<rect x="13" y="9" width="1" height="1" fill="#0D153B" />
<rect x="19" y="9" width="1" height="1" fill="#0D153B" />
<rect x="20" y="9" width="1" height="1" fill="#2B40BA" />
<rect x="21" y="9" width="1" height="1" fill="#3047D4" />
<rect x="22" y="9" width="1" height="1" fill="#3047D4" />
<rect x="23" y="9" width="1" height="1" fill="#3047D4" />
<rect x="24" y="9" width="1" height="1" fill="#3047D4" />
<rect x="25" y="9" width="1" height="1" fill="#3047D4" />
<rect x="26" y="9" width="1" height="1" fill="#3047D4" />
<rect x="27" y="9" width="1" height="1" fill="#465BD4" />
<rect x="28" y="9" width="1" height="1" fill="#0D153B" />
<rect x="35" y="9" width="1" height="1" fill="#0D153B" />
<rect x="36" y="9" width="1" height="1" fill="#2B40BA" />
<rect x="37" y="9" width="1" height="1" fill="#3047D4" />
<rect x="38" y="9" width="1" height="1" fill="#3047D4" />
<rect x="39" y="9" width="1" height="1" fill="#3047D4" />
<rect x="40" y="9" width="1" height="1" fill="#3047D4" />
<rect x="41" y="9" width="1" height="1" fill="#3047D4" />
<rect x="42" y="9" width="1" height="1" fill="#3047D4" />
<rect x="43" y="9" width="1" height="1" fill="#465BD4" />
<rect x="44" y="9" width="1" height="1" fill="#0D153B" />
<rect x="3" y="10" width="1" height="1" fill="#0D153B" />
<rect x="4" y="10" width="1" height="1" fill="#0D153B" />
<rect x="5" y="10" width="1" height="1" fill="#2B40BA" />
<rect x="6" y="10" width="1" height="1" fill="#3047D4" />
<rect x="7" y="10" width="1" height="1" fill="#3047D4" />
<rect x="8" y="10" width="1" height="1" fill="#465BD4" />
<rect x="9" y="10" width="1" height="1" fill="#465BD4" />
<rect x="10" y="10" width="1" height="1" fill="#465BD4" />
<rect x="11" y="10" width="1" height="1" fill="#0D153B" />
<rect x="12" y="10" width="1" height="1" fill="#0D153B" />
<rect x="20" y="10" width="1" height="1" fill="#0D153B" />
<rect x="21" y="10" width="1" height="1" fill="#2B40BA" />
<rect x="22" y="10" width="1" height="1" fill="#3047D4" />
<rect x="23" y="10" width="1" height="1" fill="#3047D4" />
<rect x="24" y="10" width="1" height="1" fill="#3047D4" />
<rect x="25" y="10" width="1" height="1" fill="#3047D4" />
<rect x="26" y="10" width="1" height="1" fill="#465BD4" />
<rect x="27" y="10" width="1" height="1" fill="#0D153B" />
<rect x="35" y="10" width="1" height="1" fill="#0D153B" />
<rect x="36" y="10" width="1" height="1" fill="#2B40BA" />
<rect x="37" y="10" width="1" height="1" fill="#3047D4" />
<rect x="38" y="10" width="1" height="1" fill="#3047D4" />
<rect x="39" y="10" width="1" height="1" fill="#3047D4" />
<rect x="40" y="10" width="1" height="1" fill="#3047D4" />
<rect x="41" y="10" width="1" height="1" fill="#3047D4" />
<rect x="42" y="10" width="1" height="1" fill="#3047D4" />
<rect x="43" y="10" width="1" height="1" fill="#465BD4" />
<rect x="44" y="10" width="1" height="1" fill="#0D153B" />
<rect x="5" y="11" width="1" height="1" fill="#0D153B" />
<rect x="6" y="11" width="1" height="1" fill="#0D153B" />
<rect x="7" y="11" width="1" height="1" fill="#0D153B" />
<rect x="8" y="11" width="1" height="1" fill="#0D153B" />
<rect x="9" y="11" width="1" height="1" fill="#0D153B" />
<rect x="10" y="11" width="1" height="1" fill="#0D153B" />
<rect x="21" y="11" width="1" height="1" fill="#0D153B" />
<rect x="22" y="11" width="1" height="1" fill="#2B40BA" />
<rect x="23" y="11" width="1" height="1" fill="#2B40BA" />
<rect x="24" y="11" width="1" height="1" fill="#2B40BA" />
<rect x="25" y="11" width="1" height="1" fill="#2B40BA" />
<rect x="26" y="11" width="1" height="1" fill="#0D153B" />
<rect x="36" y="11" width="1" height="1" fill="#0D153B" />
<rect x="37" y="11" width="1" height="1" fill="#2B40BA" />
<rect x="38" y="11" width="1" height="1" fill="#3047D4" />
<rect x="39" y="11" width="1" height="1" fill="#3047D4" />
<rect x="40" y="11" width="1" height="1" fill="#3047D4" />
<rect x="41" y="11" width="1" height="1" fill="#3047D4" />
<rect x="42" y="11" width="1" height="1" fill="#3047D4" />
<rect x="43" y="11" width="1" height="1" fill="#0D153B" />
<rect x="22" y="12" width="1" height="1" fill="#0D153B" />
<rect x="23" y="12" width="1" height="1" fill="#0D153B" />
<rect x="24" y="12" width="1" height="1" fill="#0D153B" />
<rect x="25" y="12" width="1" height="1" fill="#0D153B" />
<rect x="37" y="12" width="1" height="1" fill="#0D153B" />
<rect x="38" y="12" width="1" height="1" fill="#2B40BA" />
<rect x="39" y="12" width="1" height="1" fill="#2B40BA" />
<rect x="40" y="12" width="1" height="1" fill="#2B40BA" />
<rect x="41" y="12" width="1" height="1" fill="#2B40BA" />
<rect x="42" y="12" width="1" height="1" fill="#0D153B" />
<rect x="38" y="13" width="1" height="1" fill="#0D153B" />
<rect x="39" y="13" width="1" height="1" fill="#0D153B" />
<rect x="40" y="13" width="1" height="1" fill="#0D153B" />
<rect x="41" y="13" width="1" height="1" fill="#0D153B" />
<rect x="38" y="18" width="1" height="1" fill="#0D153B" />
<rect x="39" y="18" width="1" height="1" fill="#0D153B" />
<rect x="40" y="18" width="1" height="1" fill="#0D153B" />
<rect x="41" y="18" width="1" height="1" fill="#0D153B" />
<rect x="22" y="19" width="1" height="1" fill="#0D153B" />
<rect x="23" y="19" width="1" height="1" fill="#0D153B" />
<rect x="24" y="19" width="1" height="1" fill="#0D153B" />
<rect x="25" y="19" width="1" height="1" fill="#0D153B" />
<rect x="37" y="19" width="1" height="1" fill="#0D153B" />
<rect x="38" y="19" width="1" height="1" fill="#465BD4" />
<rect x="39" y="19" width="1" height="1" fill="#465BD4" />
<rect x="40" y="19" width="1" height="1" fill="#465BD4" />
<rect x="41" y="19" width="1" height="1" fill="#465BD4" />
<rect x="42" y="19" width="1" height="1" fill="#0D153B" />
<rect x="5" y="20" width="1" height="1" fill="#0D153B" />
<rect x="6" y="20" width="1" height="1" fill="#0D153B" />
<rect x="7" y="20" width="1" height="1" fill="#0D153B" />
<rect x="8" y="20" width="1" height="1" fill="#0D153B" />
<rect x="9" y="20" width="1" height="1" fill="#0D153B" />
<rect x="10" y="20" width="1" height="1" fill="#0D153B" />
<rect x="21" y="20" width="1" height="1" fill="#0D153B" />
<rect x="22" y="20" width="1" height="1" fill="#465BD4" />
<rect x="23" y="20" width="1" height="1" fill="#465BD4" />
<rect x="24" y="20" width="1" height="1" fill="#465BD4" />
<rect x="25" y="20" width="1" height="1" fill="#465BD4" />
<rect x="26" y="20" width="1" height="1" fill="#0D153B" />
<rect x="36" y="20" width="1" height="1" fill="#0D153B" />
<rect x="37" y="20" width="1" height="1" fill="#2B40BA" />
<rect x="38" y="20" width="1" height="1" fill="#3047D4" />
<rect x="39" y="20" width="1" height="1" fill="#3047D4" />
<rect x="40" y="20" width="1" height="1" fill="#3047D4" />
<rect x="41" y="20" width="1" height="1" fill="#3047D4" />
<rect x="42" y="20" width="1" height="1" fill="#465BD4" />
<rect x="43" y="20" width="1" height="1" fill="#0D153B" />
<rect x="3" y="21" width="1" height="1" fill="#0D153B" />
<rect x="4" y="21" width="1" height="1" fill="#0D153B" />
<rect x="5" y="21" width="1" height="1" fill="#2B40BA" />
<rect x="6" y="21" width="1" height="1" fill="#2B40BA" />
<rect x="7" y="21" width="1" height="1" fill="#2B40BA" />
<rect x="8" y="21" width="1" height="1" fill="#3047D4" />
<rect x="9" y="21" width="1" height="1" fill="#3047D4" />
<rect x="10" y="21" width="1" height="1" fill="#465BD4" />
<rect x="11" y="21" width="1" height="1" fill="#0D153B" />
<rect x="12" y="21" width="1" height="1" fill="#0D153B" />
<rect x="20" y="21" width="1" height="1" fill="#0D153B" />
<rect x="21" y="21" width="1" height="1" fill="#2B40BA" />
<rect x="22" y="21" width="1" height="1" fill="#3047D4" />
<rect x="23" y="21" width="1" height="1" fill="#3047D4" />
<rect x="24" y="21" width="1" height="1" fill="#3047D4" />
<rect x="25" y="21" width="1" height="1" fill="#3047D4" />
<rect x="26" y="21" width="1" height="1" fill="#465BD4" />
<rect x="27" y="21" width="1" height="1" fill="#0D153B" />
<rect x="35" y="21" width="1" height="1" fill="#0D153B" />
<rect x="36" y="21" width="1" height="1" fill="#2B40BA" />
<rect x="37" y="21" width="1" height="1" fill="#3047D4" />
<rect x="38" y="21" width="1" height="1" fill="#3047D4" />
<rect x="39" y="21" width="1" height="1" fill="#3047D4" />
<rect x="40" y="21" width="1" height="1" fill="#3047D4" />
<rect x="41" y="21" width="1" height="1" fill="#3047D4" />
<rect x="42" y="21" width="1" height="1" fill="#3047D4" />
<rect x="43" y="21" width="1" height="1" fill="#465BD4" />
<rect x="44" y="21" width="1" height="1" fill="#0D153B" />
<rect x="2" y="22" width="1" height="1" fill="#0D153B" />
<rect x="3" y="22" width="1" height="1" fill="#2B40BA" />
<rect x="4" y="22" width="1" height="1" fill="#3047D4" />
<rect x="5" y="22" width="1" height="1" fill="#3047D4" />
<rect x="6" y="22" width="1" height="1" fill="#3047D4" />
<rect x="7" y="22" width="1" height="1" fill="#3047D4" />
<rect x="8" y="22" width="1" height="1" fill="#3047D4" />
<rect x="9" y="22" width="1" height="1" fill="#3047D4" />
<rect x="10" y="22" width="1" height="1" fill="#3047D4" />
<rect x="11" y="22" width="1" height="1" fill="#3047D4" />
<rect x="12" y="22" width="1" height="1" fill="#465BD4" />
<rect x="13" y="22" width="1" height="1" fill="#0D153B" />
<rect x="19" y="22" width="1" height="1" fill="#0D153B" />
<rect x="20" y="22" width="1" height="1" fill="#2B40BA" />
<rect x="21" y="22" width="1" height="1" fill="#3047D4" />
<rect x="22" y="22" width="1" height="1" fill="#3047D4" />
<rect x="23" y="22" width="1" height="1" fill="#3047D4" />
<rect x="24" y="22" width="1" height="1" fill="#3047D4" />
<rect x="25" y="22" width="1" height="1" fill="#3047D4" />
<rect x="26" y="22" width="1" height="1" fill="#3047D4" />
<rect x="27" y="22" width="1" height="1" fill="#465BD4" />
<rect x="28" y="22" width="1" height="1" fill="#0D153B" />
<rect x="35" y="22" width="1" height="1" fill="#0D153B" />
<rect x="36" y="22" width="1" height="1" fill="#2B40BA" />
<rect x="37" y="22" width="1" height="1" fill="#3047D4" />
<rect x="38" y="22" width="1" height="1" fill="#3047D4" />
<rect x="39" y="22" width="1" height="1" fill="#3047D4" />
<rect x="40" y="22" width="1" height="1" fill="#3047D4" />
<rect x="41" y="22" width="1" height="1" fill="#3047D4" />
<rect x="42" y="22" width="1" height="1" fill="#3047D4" />
<rect x="43" y="22" width="1" height="1" fill="#465BD4" />
<rect x="44" y="22" width="1" height="1" fill="#0D153B" />
<rect x="2" y="23" width="1" height="1" fill="#0D153B" />
<rect x="3" y="23" width="1" height="1" fill="#2B40BA" />
<rect x="4" y="23" width="1" height="1" fill="#3047D4" />
<rect x="5" y="23" width="1" height="1" fill="#000000" />
<rect x="6" y="23" width="1" height="1" fill="#3047D4" />
<rect x="7" y="23" width="1" height="1" fill="#000000" />
<rect x="8" y="23" width="1" height="1" fill="#3047D4" />
<rect x="9" y="23" width="1" height="1" fill="#3047D4" />
<rect x="10" y="23" width="1" height="1" fill="#3047D4" />
<rect x="11" y="23" width="1" height="1" fill="#3047D4" />
<rect x="12" y="23" width="1" height="1" fill="#465BD4" />
<rect x="13" y="23" width="1" height="1" fill="#0D153B" />
<rect x="19" y="23" width="1" height="1" fill="#0D153B" />
<rect x="20" y="23" width="1" height="1" fill="#2B40BA" />
<rect x="21" y="23" width="1" height="1" fill="#000000" />
<rect x="22" y="23" width="1" height="1" fill="#3047D4" />
<rect x="23" y="23" width="1" height="1" fill="#000000" />
<rect x="24" y="23" width="1" height="1" fill="#3047D4" />
<rect x="25" y="23" width="1" height="1" fill="#3047D4" />
<rect x="26" y="23" width="1" height="1" fill="#3047D4" />
<rect x="27" y="23" width="1" height="1" fill="#465BD4" />
<rect x="28" y="23" width="1" height="1" fill="#0D153B" />
<rect x="35" y="23" width="1" height="1" fill="#0D153B" />
<rect x="36" y="23" width="1" height="1" fill="#2B40BA" />
<rect x="37" y="23" width="1" height="1" fill="#000000" />
<rect x="38" y="23" width="1" height="1" fill="#3047D4" />
<rect x="39" y="23" width="1" height="1" fill="#000000" />
<rect x="40" y="23" width="1" height="1" fill="#3047D4" />
<rect x="41" y="23" width="1" height="1" fill="#3047D4" />
<rect x="42" y="23" width="1" height="1" fill="#3047D4" />
<rect x="43" y="23" width="1" height="1" fill="#465BD4" />
<rect x="44" y="23" width="1" height="1" fill="#0D153B" />
<rect x="2" y="24" width="1" height="1" fill="#0D153B" />
<rect x="3" y="24" width="1" height="1" fill="#2B40BA" />
<rect x="4" y="24" width="1" height="1" fill="#3047D4" />
<rect x="5" y="24" width="1" height="1" fill="#000000" />
<rect x="6" y="24" width="1" height="1" fill="#3047D4" />
<rect x="7" y="24" width="1" height="1" fill="#000000" />
<rect x="8" y="24" width="1" height="1" fill="#3047D4" />
<rect x="9" y="24" width="1" height="1" fill="#3047D4" />
<rect x="10" y="24" width="1" height="1" fill="#3047D4" />
<rect x="11" y="24" width="1" height="1" fill="#3047D4" />
<rect x="12" y="24" width="1" height="1" fill="#465BD4" />
<rect x="13" y="24" width="1" height="1" fill="#0D153B" />
<rect x="19" y="24" width="1" height="1" fill="#0D153B" />
<rect x="20" y="24" width="1" height="1" fill="#2B40BA" />
<rect x="21" y="24" width="1" height="1" fill="#000000" />
<rect x="22" y="24" width="1" height="1" fill="#3047D4" />
<rect x="23" y="24" width="1" height="1" fill="#000000" />
<rect x="24" y="24" width="1" height="1" fill="#3047D4" />
<rect x="25" y="24" width="1" height="1" fill="#3047D4" />
<rect x="26" y="24" width="1" height="1" fill="#3047D4" />
<rect x="27" y="24" width="1" height="1" fill="#465BD4" />
<rect x="28" y="24" width="1" height="1" fill="#0D153B" />
<rect x="35" y="24" width="1" height="1" fill="#0D153B" />
<rect x="36" y="24" width="1" height="1" fill="#2B40BA" />
<rect x="37" y="24" width="1" height="1" fill="#000000" />
<rect x="38" y="24" width="1" height="1" fill="#3047D4" />
<rect x="39" y="24" width="1" height="1" fill="#000000" />
<rect x="40" y="24" width="1" height="1" fill="#3047D4" />
<rect x="41" y="24" width="1" height="1" fill="#3047D4" />
<rect x="42" y="24" width="1" height="1" fill="#3047D4" />
<rect x="43" y="24" width="1" height="1" fill="#465BD4" />
<rect x="44" y="24" width="1" height="1" fill="#0D153B" />
<rect x="2" y="25" width="1" height="1" fill="#0D153B" />
<rect x="3" y="25" width="1" height="1" fill="#2B40BA" />
<rect x="4" y="25" width="1" height="1" fill="#3047D4" />
<rect x="5" y="25" width="1" height="1" fill="#3047D4" />
<rect x="6" y="25" width="1" height="1" fill="#3047D4" />
<rect x="7" y="25" width="1" height="1" fill="#3047D4" />
<rect x="8" y="25" width="1" height="1" fill="#3047D4" />
<rect x="9" y="25" width="1" height="1" fill="#3047D4" />
<rect x="10" y="25" width="1" height="1" fill="#3047D4" />
<rect x="11" y="25" width="1" height="1" fill="#3047D4" />
<rect x="12" y="25" width="1" height="1" fill="#465BD4" />
<rect x="13" y="25" width="1" height="1" fill="#0D153B" />
<rect x="19" y="25" width="1" height="1" fill="#0D153B" />
<rect x="20" y="25" width="1" height="1" fill="#2B40BA" />
<rect x="21" y="25" width="1" height="1" fill="#3047D4" />
<rect x="22" y="25" width="1" height="1" fill="#3047D4" />
<rect x="23" y="25" width="1" height="1" fill="#3047D4" />
<rect x="24" y="25" width="1" height="1" fill="#3047D4" />
<rect x="25" y="25" width="1" height="1" fill="#3047D4" />
<rect x="26" y="25" width="1" height="1" fill="#3047D4" />
<rect x="27" y="25" width="1" height="1" fill="#465BD4" />
<rect x="28" y="25" width="1" height="1" fill="#0D153B" />
<rect x="35" y="25" width="1" height="1" fill="#0D153B" />
<rect x="36" y="25" width="1" height="1" fill="#2B40BA" />
<rect x="37" y="25" width="1" height="1" fill="#3047D4" />
<rect x="38" y="25" width="1" height="1" fill="#3047D4" />
<rect x="39" y="25" width="1" height="1" fill="#3047D4" />
<rect x="40" y="25" width="1" height="1" fill="#3047D4" />
<rect x="41" y="25" width="1" height="1" fill="#3047D4" />
<rect x="42" y="25" width="1" height="1" fill="#3047D4" />
<rect x="43" y="25" width="1" height="1" fill="#465BD4" />
<rect x="44" y="25" width="1" height="1" fill="#0D153B" />
<rect x="3" y="26" width="1" height="1" fill="#0D153B" />
<rect x="4" y="26" width="1" height="1" fill="#0D153B" />
<rect x="5" y="26" width="1" height="1" fill="#2B40BA" />
<rect x="6" y="26" width="1" height="1" fill="#3047D4" />
<rect x="7" y="26" width="1" height="1" fill="#3047D4" />
<rect x="8" y="26" width="1" height="1" fill="#465BD4" />
<rect x="9" y="26" width="1" height="1" fill="#465BD4" />
<rect x="10" y="26" width="1" height="1" fill="#465BD4" />
<rect x="11" y="26" width="1" height="1" fill="#0D153B" />
<rect x="12" y="26" width="1" height="1" fill="#0D153B" />
<rect x="20" y="26" width="1" height="1" fill="#0D153B" />
<rect x="21" y="26" width="1" height="1" fill="#2B40BA" />
<rect x="22" y="26" width="1" height="1" fill="#3047D4" />
<rect x="23" y="26" width="1" height="1" fill="#3047D4" />
<rect x="24" y="26" width="1" height="1" fill="#3047D4" />
<rect x="25" y="26" width="1" height="1" fill="#3047D4" />
<rect x="26" y="26" width="1" height="1" fill="#465BD4" />
<rect x="27" y="26" width="1" height="1" fill="#0D153B" />
<rect x="35" y="26" width="1" height="1" fill="#0D153B" />
<rect x="36" y="26" width="1" height="1" fill="#2B40BA" />
<rect x="37" y="26" width="1" height="1" fill="#3047D4" />
<rect x="38" y="26" width="1" height="1" fill="#3047D4" />
<rect x="39" y="26" width="1" height="1" fill="#3047D4" />
<rect x="40" y="26" width="1" height="1" fill="#3047D4" />
<rect x="41" y="26" width="1" height="1" fill="#3047D4" />
<rect x="42" y="26" width="1" height="1" fill="#3047D4" />
<rect x="43" y="26" width="1" height="1" fill="#465BD4" />
<rect x="44" y="26" width="1" height="1" fill="#0D153B" />
<rect x="5" y="27" width="1" height="1" fill="#0D153B" />
<rect x="6" y="27" width="1" height="1" fill="#0D153B" />
<rect x="7" y="27" width="1" height="1" fill="#0D153B" />
<rect x="8" y="27" width="1" height="1" fill="#0D153B" />
<rect x="9" y="27" width="1" height="1" fill="#0D153B" />
<rect x="10" y="27" width="1" height="1" fill="#0D153B" />
<rect x="21" y="27" width="1" height="1" fill="#0D153B" />
<rect x="22" y="27" width="1" height="1" fill="#2B40BA" />
<rect x="23" y="27" width="1" height="1" fill="#2B40BA" />
<rect x="24" y="27" width="1" height="1" fill="#2B40BA" />
<rect x="25" y="27" width="1" height="1" fill="#2B40BA" />
<rect x="26" y="27" width="1" height="1" fill="#0D153B" />
<rect x="36" y="27" width="1" height="1" fill="#0D153B" />
<rect x="37" y="27" width="1" height="1" fill="#2B40BA" />
<rect x="38" y="27" width="1" height="1" fill="#3047D4" />
<rect x="39" y="27" width="1" height="1" fill="#3047D4" />
<rect x="40" y="27" width="1" height="1" fill="#3047D4" />
<rect x="41" y="27" width="1" height="1" fill="#3047D4" />
<rect x="42" y="27" width="1" height="1" fill="#3047D4" />
<rect x="43" y="27" width="1" height="1" fill="#0D153B" />
<rect x="22" y="28" width="1" height="1" fill="#0D153B" />
<rect x="23" y="28" width="1" height="1" fill="#0D153B" />
<rect x="24" y="28" width="1" height="1" fill="#0D153B" />
<rect x="25" y="28" width="1" height="1" fill="#0D153B" />
<rect x="37" y="28" width="1" height="1" fill="#0D153B" />
<rect x="38" y="28" width="1" height="1" fill="#2B40BA" />
<rect x="39" y="28" width="1" height="1" fill="#2B40BA" />
<rect x="40" y="28" width="1" height="1" fill="#2B40BA" />
<rect x="41" y="28" width="1" height="1" fill="#2B40BA" />
<rect x="42" y="28" width="1" height="1" fill="#0D153B" />
<rect x="38" y="29" width="1" height="1" fill="#0D153B" />
<rect x="39" y="29" width="1" height="1" fill="#0D153B" />
<rect x="40" y="29" width="1" height="1" fill="#0D153B" />
<rect x="41" y="29" width="1" height="1" fill="#0D153B" />
<rect x="38" y="34" width="1" height="1" fill="#0D153B" />
<rect x="39" y="34" width="1" height="1" fill="#0D153B" />
<rect x="40" y="34" width="1" height="1" fill="#0D153B" />
<rect x="41" y="34" width="1" height="1" fill="#0D153B" />
<rect x="22" y="35" width="1" height="1" fill="#0D153B" />
<rect x="23" y="35" width="1" height="1" fill="#0D153B" />
<rect x="24" y="35" width="1" height="1" fill="#0D153B" />
<rect x="25" y="35" width="1" height="1" fill="#0D153B" />
<rect x="37" y="35" width="1" height="1" fill="#0D153B" />
<rect x="38" y="35" width="1" height="1" fill="#465BD4" />
<rect x="39" y="35" width="1" height="1" fill="#465BD4" />
<rect x="40" y="35" width="1" height="1" fill="#465BD4" />
<rect x="41" y="35" width="1" height="1" fill="#465BD4" />
<rect x="42" y="35" width="1" height="1" fill="#0D153B" />
<rect x="5" y="36" width="1" height="1" fill="#0D153B" />
<rect x="6" y="36" width="1" height="1" fill="#0D153B" />
<rect x="7" y="36" width="1" height="1" fill="#0D153B" />
<rect x="8" y="36" width="1" height="1" fill="#0D153B" />
<rect x="9" y="36" width="1" height="1" fill="#0D153B" />
<rect x="10" y="36" width="1" height="1" fill="#0D153B" />
<rect x="21" y="36" width="1" height="1" fill="#0D153B" />
<rect x="22" y="36" width="1" height="1" fill="#465BD4" />
<rect x="23" y="36" width="1" height="1" fill="#465BD4" />
<rect x="24" y="36" width="1" height="1" fill="#465BD4" />
<rect x="25" y="36" width="1" height="1" fill="#465BD4" />
<rect x="26" y="36" width="1" height="1" fill="#0D153B" />
<rect x="36" y="36" width="1" height="1" fill="#0D153B" />
<rect x="37" y="36" width="1" height="1" fill="#2B40BA" />
<rect x="38" y="36" width="1" height="1" fill="#3047D4" />
<rect x="39" y="36" width="1" height="1" fill="#3047D4" />
<rect x="40" y="36" width="1" height="1" fill="#3047D4" />
<rect x="41" y="36" width="1" height="1" fill="#3047D4" />
<rect x="42" y="36" width="1" height="1" fill="#465BD4" />
<rect x="43" y="36" width="1" height="1" fill="#0D153B" />
<rect x="3" y="37" width="1" height="1" fill="#0D153B" />
<rect x="4" y="37" width="1" height="1" fill="#0D153B" />
<rect x="5" y="37" width="1" height="1" fill="#2B40BA" />
<rect x="6" y="37" width="1" height="1" fill="#2B40BA" />
<rect x="7" y="37" width="1" height="1" fill="#2B40BA" />
<rect x="8" y="37" width="1" height="1" fill="#3047D4" />
<rect x="9" y="37" width="1" height="1" fill="#3047D4" />
<rect x="10" y="37" width="1" height="1" fill="#465BD4" />
<rect x="11" y="37" width="1" height="1" fill="#0D153B" />
<rect x="12" y="37" width="1" height="1" fill="#0D153B" />
<rect x="20" y="37" width="1" height="1" fill="#0D153B" />
<rect x="21" y="37" width="1" height="1" fill="#2B40BA" />
<rect x="22" y="37" width="1" height="1" fill="#3047D4" />
<rect x="23" y="37" width="1" height="1" fill="#3047D4" />
<rect x="24" y="37" width="1" height="1" fill="#3047D4" />
<rect x="25" y="37" width="1" height="1" fill="#3047D4" />
<rect x="26" y="37" width="1" height="1" fill="#465BD4" />
<rect x="27" y="37" width="1" height="1" fill="#0D153B" />
<rect x="35" y="37" width="1" height="1" fill="#0D153B" />
<rect x="36" y="37" width="1" height="1" fill="#2B40BA" />
<rect x="37" y="37" width="1" height="1" fill="#3047D4" />
<rect x="38" y="37" width="1" height="1" fill="#3047D4" />
<rect x="39" y="37" width="1" height="1" fill="#3047D4" />
<rect x="40" y="37" width="1" height="1" fill="#3047D4" />
<rect x="41" y="37" width="1" height="1" fill="#3047D4" />
<rect x="42" y="37" width="1" height="1" fill="#3047D4" />
<rect x="43" y="37" width="1" height="1" fill="#465BD4" />
<rect x="44" y="37" width="1" height="1" fill="#0D153B" />
<rect x="2" y="38" width="1" height="1" fill="#0D153B" />
<rect x="3" y="38" width="1" height="1" fill="#2B40BA" />
<rect x="4" y="38" width="1" height="1" fill="#3047D4" />
<rect x="5" y="38" width="1" height="1" fill="#3047D4" />
<rect x="6" y="38" width="1" height="1" fill="#3047D4" />
<rect x="7" y="38" width="1" height="1" fill="#3047D4" />
<rect x="8" y="38" width="1" height="1" fill="#3047D4" />
<rect x="9" y="38" width="1" height="1" fill="#3047D4" />
<rect x="10" y="38" width="1" height="1" fill="#3047D4" />
<rect x="11" y="38" width="1" height="1" fill="#3047D4" />
<rect x="12" y="38" width="1" height="1" fill="#465BD4" />
<rect x="13" y="38" width="1" height="1" fill="#0D153B" />
<rect x="19" y="38" width="1" height="1" fill="#0D153B" />
<rect x="20" y="38" width="1" height="1" fill="#2B40BA" />
<rect x="21" y="38" width="1" height="1" fill="#3047D4" />
<rect x="22" y="38" width="1" height="1" fill="#3047D4" />
<rect x="23" y="38" width="1" height="1" fill="#3047D4" />
<rect x="24" y="38" width="1" height="1" fill="#3047D4" />
<rect x="25" y="38" width="1" height="1" fill="#3047D4" />
<rect x="26" y="38" width="1" height="1" fill="#3047D4" />
<rect x="27" y="38" width="1" height="1" fill="#465BD4" />
<rect x="28" y="38" width="1" height="1" fill="#0D153B" />
<rect x="35" y="38" width="1" height="1" fill="#0D153B" />
<rect x="36" y="38" width="1" height="1" fill="#2B40BA" />
<rect x="37" y="38" width="1" height="1" fill="#3047D4" />
<rect x="38" y="38" width="1" height="1" fill="#3047D4" />
<rect x="39" y="38" width="1" height="1" fill="#3047D4" />
<rect x="40" y="38" width="1" height="1" fill="#3047D4" />
<rect x="41" y="38" width="1" height="1" fill="#3047D4" />
<rect x="42" y="38" width="1" height="1" fill="#3047D4" />
<rect x="43" y="38" width="1" height="1" fill="#465BD4" />
<rect x="44" y="38" width="1" height="1" fill="#0D153B" />
<rect x="2" y="39" width="1" height="1" fill="#0D153B" />
<rect x="3" y="39" width="1" height="1" fill="#2B40BA" />
<rect x="4" y="39" width="1" height="1" fill="#3047D4" />
<rect x="5" y="39" width="1" height="1" fill="#3047D4" />
<rect x="6" y="39" width="1" height="1" fill="#3047D4" />
<rect x="7" y="39" width="1" height="1" fill="#3047D4" />
<rect x="8" y="39" width="1" height="1" fill="#3047D4" />
<rect x="9" y="39" width="1" height="1" fill="#3047D4" />
<rect x="10" y="39" width="1" height="1" fill="#3047D4" />
<rect x="11" y="39" width="1" height="1" fill="#3047D4" />
<rect x="12" y="39" width="1" height="1" fill="#465BD4" />
<rect x="13" y="39" width="1" height="1" fill="#0D153B" />
<rect x="19" y="39" width="1" height="1" fill="#0D153B" />
<rect x="20" y="39" width="1" height="1" fill="#2B40BA" />
<rect x="21" y="39" width="1" height="1" fill="#3047D4" />
<rect x="22" y="39" width="1" height="1" fill="#3047D4" />
<rect x="23" y="39" width="1" height="1" fill="#3047D4" />
<rect x="24" y="39" width="1" height="1" fill="#3047D4" />
<rect x="25" y="39" width="1" height="1" fill="#3047D4" />
<rect x="26" y="39" width="1" height="1" fill="#3047D4" />
<rect x="27" y="39" width="1" height="1" fill="#465BD4" />
<rect x="28" y="39" width="1" height="1" fill="#0D153B" />
<rect x="35" y="39" width="1" height="1" fill="#0D153B" />
<rect x="36" y="39" width="1" height="1" fill="#2B40BA" />
<rect x="37" y="39" width="1" height="1" fill="#3047D4" />
<rect x="38" y="39" width="1" height="1" fill="#3047D4" />
<rect x="39" y="39" width="1" height="1" fill="#3047D4" />
<rect x="40" y="39" width="1" height="1" fill="#3047D4" />
<rect x="41" y="39" width="1" height="1" fill="#3047D4" />
<rect x="42" y="39" width="1" height="1" fill="#3047D4" />
<rect x="43" y="39" width="1" height="1" fill="#465BD4" />
<rect x="44" y="39" width="1" height="1" fill="#0D153B" />
<rect x="2" y="40" width="1" height="1" fill="#0D153B" />
<rect x="3" y="40" width="1" height="1" fill="#2B40BA" />
<rect x="4" y="40" width="1" height="1" fill="#3047D4" />
<rect x="5" y="40" width="1" height="1" fill="#3047D4" />
<rect x="6" y="40" width="1" height="1" fill="#000000" />
<rect x="7" y="40" width="1" height="1" fill="#3047D4" />
<rect x="8" y="40" width="1" height="1" fill="#3047D4" />
<rect x="9" y="40" width="1" height="1" fill="#000000" />
<rect x="10" y="40" width="1" height="1" fill="#3047D4" />
<rect x="11" y="40" width="1" height="1" fill="#3047D4" />
<rect x="12" y="40" width="1" height="1" fill="#465BD4" />
<rect x="13" y="40" width="1" height="1" fill="#0D153B" />
<rect x="19" y="40" width="1" height="1" fill="#0D153B" />
<rect x="20" y="40" width="1" height="1" fill="#2B40BA" />
<rect x="21" y="40" width="1" height="1" fill="#3047D4" />
<rect x="22" y="40" width="1" height="1" fill="#000000" />
<rect x="23" y="40" width="1" height="1" fill="#3047D4" />
<rect x="24" y="40" width="1" height="1" fill="#3047D4" />
<rect x="25" y="40" width="1" height="1" fill="#000000" />
<rect x="26" y="40" width="1" height="1" fill="#3047D4" />
<rect x="27" y="40" width="1" height="1" fill="#465BD4" />
<rect x="28" y="40" width="1" height="1" fill="#0D153B" />
<rect x="35" y="40" width="1" height="1" fill="#0D153B" />
<rect x="36" y="40" width="1" height="1" fill="#2B40BA" />
<rect x="37" y="40" width="1" height="1" fill="#3047D4" />
<rect x="38" y="40" width="1" height="1" fill="#000000" />
<rect x="39" y="40" width="1" height="1" fill="#3047D4" />
<rect x="40" y="40" width="1" height="1" fill="#3047D4" />
<rect x="41" y="40" width="1" height="1" fill="#000000" />
<rect x="42" y="40" width="1" height="1" fill="#3047D4" />
<rect x="43" y="40" width="1" height="1" fill="#465BD4" />
<rect x="44" y="40" width="1" height="1" fill="#0D153B" />
<rect x="2" y="41" width="1" height="1" fill="#0D153B" />
<rect x="3" y="41" width="1" height="1" fill="#2B40BA" />
<rect x="4" y="41" width="1" height="1" fill="#3047D4" />
<rect x="5" y="41" width="1" height="1" fill="#3047D4" />
<rect x="6" y="41" width="1" height="1" fill="#000000" />
<rect x="7" y="41" width="1" height="1" fill="#3047D4" />
<rect x="8" y="41" width="1" height="1" fill="#3047D4" />
<rect x="9" y="41" width="1" height="1" fill="#000000" />
<rect x="10" y="41" width="1" height="1" fill="#3047D4" />
<rect x="11" y="41" width="1" height="1" fill="#3047D4" />
<rect x="12" y="41" width="1" height="1" fill="#465BD4" />
<rect x="13" y="41" width="1" height="1" fill="#0D153B" />
<rect x="19" y="41" width="1" height="1" fill="#0D153B" />
<rect x="20" y="41" width="1" height="1" fill="#2B40BA" />
<rect x="21" y="41" width="1" height="1" fill="#3047D4" />
<rect x="22" y="41" width="1" height="1" fill="#000000" />
<rect x="23" y="41" width="1" height="1" fill="#3047D4" />
<rect x="24" y="41" width="1" height="1" fill="#3047D4" />
<rect x="25" y="41" width="1" height="1" fill="#000000" />
<rect x="26" y="41" width="1" height="1" fill="#3047D4" />
<rect x="27" y="41" width="1" height="1" fill="#465BD4" />
<rect x="28" y="41" width="1" height="1" fill="#0D153B" />
<rect x="35" y="41" width="1" height="1" fill="#0D153B" />
<rect x="36" y="41" width="1" height="1" fill="#2B40BA" />
<rect x="37" y="41" width="1" height="1" fill="#3047D4" />
<rect x="38" y="41" width="1" height="1" fill="#000000" />
<rect x="39" y="41" width="1" height="1" fill="#3047D4" />
<rect x="40" y="41" width="1" height="1" fill="#3047D4" />
<rect x="41" y="41" width="1" height="1" fill="#000000" />
<rect x="42" y="41" width="1" height="1" fill="#3047D4" />
<rect x="43" y="41" width="1" height="1" fill="#465BD4" />
<rect x="44" y="41" width="1" height="1" fill="#0D153B" />
<rect x="3" y="42" width="1" height="1" fill="#0D153B" />
<rect x="4" y="42" width="1" height="1" fill="#0D153B" />
<rect x="5" y="42" width="1" height="1" fill="#2B40BA" />
<rect x="6" y="42" width="1" height="1" fill="#3047D4" />
<rect x="7" y="42" width="1" height="1" fill="#3047D4" />
<rect x="8" y="42" width="1" height="1" fill="#465BD4" />
<rect x="9" y="42" width="1" height="1" fill="#465BD4" />
<rect x="10" y="42" width="1" height="1" fill="#465BD4" />
<rect x="11" y="42" width="1" height="1" fill="#0D153B" />
<rect x="12" y="42" width="1" height="1" fill="#0D153B" />
<rect x="20" y="42" width="1" height="1" fill="#0D153B" />
<rect x="21" y="42" width="1" height="1" fill="#2B40BA" />
<rect x="22" y="42" width="1" height="1" fill="#3047D4" />
<rect x="23" y="42" width="1" height="1" fill="#3047D4" />
<rect x="24" y="42" width="1" height="1" fill="#3047D4" />
<rect x="25" y="42" width="1" height="1" fill="#3047D4" />
<rect x="26" y="42" width="1" height="1" fill="#465BD4" />
<rect x="27" y="42" width="1" height="1" fill="#0D153B" />
<rect x="35" y="42" width="1" height="1" fill="#0D153B" />
<rect x="36" y="42" width="1" height="1" fill="#2B40BA" />
<rect x="37" y="42" width="1" height="1" fill="#3047D4" />
<rect x="38" y="42" width="1" height="1" fill="#3047D4" />
<rect x="39" y="42" width="1" height="1" fill="#3047D4" />
<rect x="40" y="42" width="1" height="1" fill="#3047D4" />
<rect x="41" y="42" width="1" height="1" fill="#3047D4" />
<rect x="42" y="42" width="1" height="1" fill="#3047D4" />
<rect x="43" y="42" width="1" height="1" fill="#465BD4" />
<rect x="44" y="42" width="1" height="1" fill="#0D153B" />
<rect x="5" y="43" width="1" height="1" fill="#0D153B" />
<rect x="6" y="43" width="1" height="1" fill="#0D153B" />
<rect x="7" y="43" width="1" height="1" fill="#0D153B" />
<rect x="8" y="43" width="1" height="1" fill="#0D153B" />
<rect x="9" y="43" width="1" height="1" fill="#0D153B" />
<rect x="10" y="43" width="1" height="1" fill="#0D153B" />
<rect x="21" y="43" width="1" height="1" fill="#0D153B" />
<rect x="22" y="43" width="1" height="1" fill="#2B40BA" />
<rect x="23" y="43" width="1" height="1" fill="#2B40BA" />
<rect x="24" y="43" width="1" height="1" fill="#2B40BA" />
<rect x="25" y="43" width="1" height="1" fill="#2B40BA" />
<rect x="26" y="43" width="1" height="1" fill="#0D153B" />
<rect x="36" y="43" width="1" height="1" fill="#0D153B" />
<rect x="37" y="43" width="1" height="1" fill="#2B40BA" />
<rect x="38" y="43" width="1" height="1" fill="#3047D4" />
<rect x="39" y="43" width="1" height="1" fill="#3047D4" />
<rect x="40" y="43" width="1" height="1" fill="#3047D4" />
<rect x="41" y="43" width="1" height="1" fill="#3047D4" />
<rect x="42" y="43" width="1" height="1" fill="#3047D4" />
<rect x="43" y="43" width="1" height="1" fill="#0D153B" />
<rect x="22" y="44" width="1" height="1" fill="#0D153B" />
<rect x="23" y="44" width="1" height="1" fill="#0D153B" />
<rect x="24" y="44" width="1" height="1" fill="#0D153B" />
<rect x="25" y="44" width="1" height="1" fill="#0D153B" />
<rect x="37" y="44" width="1" height="1" fill="#0D153B" />
<rect x="38" y="44" width="1" height="1" fill="#2B40BA" />
<rect x="39" y="44" width="1" height="1" fill="#2B40BA" />
<rect x="40" y="44" width="1" height="1" fill="#2B40BA" />
<rect x="41" y="44" width="1" height="1" fill="#2B40BA" />
<rect x="42" y="44" width="1" height="1" fill="#0D153B" />
<rect x="38" y="45" width="1" height="1" fill="#0D153B" />
<rect x="39" y="45" width="1" height="1" fill="#0D153B" />
<rect x="40" y="45" width="1" height="1" fill="#0D153B" />
<rect x="41" y="45" width="1" height="1" fill="#0D153B" />
</svg>